<?xml version="1.0" encoding="utf-8"?>
<!-- Generator: Adobe Illustrator 19.0.0, SVG Export Plug-In . SVG Version: 6.00 Build 0)  -->
<svg version="1.1" id="layer" xmlns="http://www.w3.org/2000/svg" xmlns:xlink="http://www.w3.org/1999/xlink" x="0px" y="0px"
	 viewBox="-153 -46 652 652" style="enable-background:new -153 -46 652 652;" xml:space="preserve">
<style type="text/css">
	.st0{fill:#4B4A4B;}
	.st1{fill:#E6E7E8;}
	.st2{fill:url(#SVGID_1_);}
	.st3{fill:url(#SVGID_2_);}
	.st4{fill:url(#SVGID_3_);}
	.st5{fill:url(#SVGID_4_);}
	.st6{fill:url(#SVGID_5_);}
	.st7{fill:#404041;}
</style>
<path class="st0" d="M45.3,310.1c-1.4,0-2.3-0.5-3.2-1.5c-0.9-0.9-1.4-1.8-1.4-3.3v-46.3c0-1.3,0.5-2.4,1.4-3.3
	c0.9-0.9,2-1.5,3.2-1.5s2.3,0.5,3.2,1.5c0.9,0.9,1.4,2,1.4,3.3v41.7h29.4c1.2,0,2.3,0.5,3.2,1.5s1.4,2,1.4,3.3
	c0,1.5-0.5,2.4-1.4,3.3s-2,1.5-3.2,1.5H45.3V310.1z M92.4,263.8c-1.2,0-2.3-0.5-3.2-1.5c-0.9-0.9-1.4-2-1.4-3.3
	c0-1.3,0.5-2.4,1.4-3.3c0.9-0.9,2-1.5,3.2-1.5c1.2,0,2.3,0.5,3.2,1.5c0.9,0.9,1.4,2,1.4,3.3c0,1.3-0.5,2.4-1.4,3.3
	C94.7,263.3,93.8,263.8,92.4,263.8z M97,305.5c0,1.3-0.5,2.4-1.4,3.3c-0.9,0.9-2,1.3-3.2,1.3c-1.2,0-2.3-0.5-3.2-1.5
	c-0.9-0.9-1.4-2-1.4-3.3v-30.7c0-1.3,0.5-2.4,1.4-3.3c0.9-0.9,2-1.5,3.2-1.5c1.4,0,2.3,0.5,3.2,1.5c0.9,0.9,1.4,2,1.4,3.3V305.5z
	 M186,271.3c-0.9-0.9-2-1.5-3.2-1.5s-2.3,0.5-3.2,1.5s-1.4,2-1.4,3.3V290c0,0.9-0.2,1.5-0.4,2.2v0.4c0,0.4-0.2,0.5-0.2,0.9
	c-0.2,0.5-0.4,0.9-0.5,1.5c-0.2,0.5-0.5,0.9-0.7,1.5c-0.4,0.4-0.5,0.9-0.9,1.3c0,0.2-0.2,0.2-0.2,0.4c-0.2,0.4-0.5,0.5-0.9,0.7
	c-0.9,0.7-1.8,1.5-2.9,1.8c-1.4,0.5-2.5,0.9-3.9,0.9h-0.2h0.4c-1.4,0-2.7-0.4-3.9-0.9c-1.1-0.5-2-1.1-2.9-1.8
	c-0.4-0.2-0.5-0.5-0.9-0.7c0-0.2-0.2-0.2-0.2-0.4c-0.4-0.4-0.7-0.7-0.9-1.3c-0.4-0.4-0.5-0.9-0.7-1.5c-0.2-0.4-0.4-0.9-0.5-1.5
	c0-0.2-0.2-0.5-0.2-0.9c0-0.2,0-0.2,0-0.4c-0.2-0.7-0.4-1.5-0.4-2.2v-15.5c0-1.3-0.5-2.4-1.4-3.3c-0.5-0.7-1.6-1.3-2.9-1.3
	s-2.3,0.5-3.2,1.5c-0.9,0.9-1.4,2-1.4,3.3V290c0,1.6,0.2,3.3,0.5,4.4c1.4,5.3,4.1,9.5,8.4,12.4c1.2,0.9,2.5,1.5,3.7,2
	c0.2,0,0.5,0.2,0.7,0.2s0.5,0.2,0.7,0.2c1.8,0.5,3.7,0.9,5.7,0.9c2,0,3.9-0.4,5.7-0.9c0.2,0,0.5-0.2,0.7-0.2c0.2,0,0.5-0.2,0.7-0.2
	c1.4-0.5,2.5-1.3,3.7-2c4.1-2.7,7-6.9,8.4-12.4c0.4-1.3,0.5-2.7,0.5-4.4v-15.5C187.5,273.1,186.9,272.2,186,271.3z M199.4,263.8
	c-1.2,0-2.3-0.5-3.2-1.5c-0.9-0.9-1.4-2-1.4-3.3c0-1.3,0.5-2.4,1.4-3.3c0.9-0.9,2-1.5,3.2-1.5s2.3,0.5,3.2,1.5
	c0.9,0.9,1.4,2,1.4,3.3c0,1.3-0.5,2.4-1.4,3.3C201.9,263.3,200.8,263.8,199.4,263.8z M204,305.5c0,1.3-0.5,2.4-1.4,3.3
	s-2,1.5-3.2,1.5s-2.3-0.5-3.2-1.5c-0.9-0.9-1.4-2-1.4-3.3v-30.9c0-1.3,0.5-2.4,1.4-3.3c0.9-0.9,2-1.5,3.2-1.5c1.4,0,2.3,0.5,3.2,1.5
	s1.4,2,1.4,3.3V305.5z M140.5,271.3c-0.9-0.9-2-1.5-3.2-1.5c-2.3,0-3.7,1.3-4.3,3.5c-3.2-2.2-6.8-3.3-10.5-3.5h-0.2
	c-2.9,0-5.5,0.7-8,1.6c-4.1,1.8-7.1,4.9-9.5,9.3c-1.4,2.9-2.1,6-2.1,9.1c0,1.5,0.2,2.7,0.4,4.2c1.1,5.3,3.9,9.7,8.4,12.8
	c3.4,2.2,7,3.5,10.7,3.5c1.4,0,2.7-0.2,4.1-0.4c0.2,0,0.5-0.2,0.7-0.2h0.2h0.2c0.7-0.2,1.4-0.5,2-1.3c0.9-0.9,1.4-2,1.4-3.3
	s-0.5-2.4-1.4-3.3c-0.9-0.9-2-1.5-3.2-1.5c-0.5,0-0.9,0-1.2,0.2c-0.9,0.2-1.6,0.4-2.5,0.4c-0.7,0-1.4,0-2.1-0.2
	c-2.3-0.5-4.3-1.6-6.1-3.8s-2.3-4.2-2.3-6.9V290c0-2.9,1.1-5.3,3.2-7.3c2-2,4.5-3.1,7.3-3.3c3.4,0,6.1,1.5,8,4.2
	c1.6,2,2.5,4.2,2.5,6.8v30.9c0,1.5,0.5,2.4,1.4,3.3c0.9,0.9,2,1.5,3.2,1.5s2.3-0.5,3.2-1.5s1.4-1.8,1.4-3.3V275
	C141.8,273.3,141.4,272.2,140.5,271.3L140.5,271.3z M247.6,308.6c-0.9,0.9-2,1.5-3.2,1.5c-2.3,0-3.7-1.3-4.3-3.5
	c-3.2,2.2-6.8,3.3-10.5,3.5h-0.2c-2.9,0-5.5-0.7-8-1.6c-4.1-1.8-7.1-4.9-9.5-9.3c-1.4-2.9-2.1-6-2.1-9.1c0-1.5,0.2-2.7,0.4-4.2
	c1.1-5.3,3.9-9.7,8.4-12.8c3.4-2.2,7-3.5,10.7-3.5c1.4,0,2.7,0.2,4.1,0.4c0.2,0,0.5,0.2,0.7,0.2h0.2h0.2c0.7,0.2,1.4,0.5,2,1.3
	c0.9,0.9,1.4,2,1.4,3.3s-0.5,2.4-1.4,3.3c-0.9,0.9-2,1.5-3.2,1.5c-0.5,0-0.9,0-1.2-0.2c-0.9-0.2-1.6-0.4-2.5-0.4
	c-0.7,0-1.4,0-2.1,0.2c-2.3,0.5-4.3,1.6-6.1,3.8c-1.8,2.2-2.3,4.2-2.3,6.9v0.2c0,2.9,1.1,5.3,3.2,7.3c2,2,4.5,3.1,7.3,3.3
	c3.4,0,6.1-1.5,8-4.2c1.6-2,2.5-4.2,2.5-6.8v-31.1c0-1.5,0.5-2.4,1.4-3.3c0.9-0.9,2-1.5,3.2-1.5s2.3,0.5,3.2,1.5
	c0.9,0.9,1.4,1.8,1.4,3.3V305C248.8,306.6,248.5,307.7,247.6,308.6L247.6,308.6z M395.1,308.8c0.9,0.9,2,1.5,3.2,1.5
	c2.3,0,3.7-1.3,4.3-3.5c3.2,2.2,6.8,3.3,10.5,3.5h0.2c2.9,0,5.5-0.7,8-1.6c4.1-1.8,7.1-4.9,9.5-9.3c1.4-2.9,2.1-6,2.1-9.1
	c0-1.5-0.2-2.7-0.4-4.2c-1.1-5.3-3.9-9.7-8.4-12.8c-3.4-2.2-7-3.5-10.7-3.5c-1.4,0-2.7,0.2-4.1,0.4c-0.2,0-0.5,0.2-0.7,0.2
	c-0.7,0.2-1.4,0.5-2,1.3c-0.9,0.9-1.4,2-1.4,3.3s0.5,2.4,1.4,3.3c0.9,0.9,2,1.5,3.2,1.5c0.5,0,0.9,0,1.2-0.2
	c0.9-0.2,1.6-0.4,2.5-0.4c0.7,0,1.4,0,2.1,0.2c2.3,0.5,4.3,1.6,6.1,3.8c1.6,2,2.3,4.2,2.3,6.9v0.2c0,2.9-1.1,5.3-3.2,7.3
	c-2,2-4.5,3.1-7.3,3.3c-3.4,0-6.1-1.5-8-4.2c-1.6-2-2.5-4.2-2.5-6.8v-31.1c0-1.5-0.5-2.4-1.4-3.3c-0.9-0.9-2-1.5-3.2-1.5
	c-1.2,0-2.3,0.5-3.2,1.5c-0.9,0.9-1.4,1.8-1.4,3.3v46.4C393.7,306.6,394.2,307.9,395.1,308.8L395.1,308.8z M387.8,282.3
	c-1.6-3.7-4.1-6.6-7.1-9c-3.2-2.2-6.6-3.5-10-3.5H370c-4.1,0.2-7.7,1.5-10.9,3.5c-3.4,2.2-5.7,5.1-7.1,9c-1.1,2.6-1.4,5.1-1.4,7.7
	c0,2.4,0.4,4.6,1.2,7.1c0,0.2,0.2,0.4,0.2,0.7c0,0.2,0.2,0.4,0.2,0.5c1.1,2.2,2.3,4.2,4.1,6c3,3.1,7,4.9,11.2,5.7
	c1.1,0.2,1.8,0.2,2.9,0.2c3.4,0,6.6-0.9,9.5-2.6c2.1-1.5,4.5-3.7,7-6.9c0.5-0.7,0.7-1.5,0.7-2.4c0-0.4,0-0.7-0.2-1.3
	c-0.4-1.3-1.1-2.2-2-2.9c-0.7-0.5-1.4-0.7-2.3-0.7c-0.4,0-0.7,0-1.1,0.2c-1.2,0.4-2.1,1.1-2.9,2c-1.4,1.6-2.5,3.1-3.7,3.8
	c-1.6,0.9-3.4,1.5-5.4,1.5h-0.4c-2-0.2-3.9-0.7-5.5-1.8c-0.5-0.4-0.9-0.7-1.4-1.1c-3.7-3.5-3.4-8.6-3.4-8.6c0.2-2,0.7-3.8,1.8-5.3
	c2-3.3,5-4.8,8.6-4.8c0.5,0,1.2,0,1.6,0.2c2,0.4,4.1,1.3,5.5,2.7l-12.5,5.1c-0.5,0.2-1.1,0.5-1.4,1.1c-0.9,0.9-1.4,2-1.4,3.3
	s0.5,2.4,1.4,3.3s2,1.5,3.2,1.5c0.7,0,1.2-0.2,1.8-0.4l17.8-7.3c1.6-0.9,2.4-2.7,2.4-5.4C388,283.1,387.9,282.7,387.8,282.3z
	 M300.6,261.1c-0.4-0.7-0.5-1.5-0.5-2c0-0.5,0-1.1,0.2-1.5c0.4-1.3,1.2-2,2.3-2.7c0.7-0.4,1.4-0.5,2-0.5s0.9,0,1.4,0.2
	c1.2,0.5,2,1.3,2.7,2.4l8.2,16.8c0.2,0.2,0.2,0.4,0.4,0.5l10,20.7l18.6-38.2c0.5-1.3,1.4-1.8,2.7-2.4c0.5-0.2,1.1-0.2,1.4-0.2
	c0.7,0,1.4,0.2,2,0.5c1.2,0.5,1.8,1.5,2.3,2.7c0.2,0.5,0.2,1.1,0.2,1.5c0,0.7-0.2,1.5-0.5,2l-22.7,46.4c-0.9,1.6-2.1,2.6-4.1,2.6
	c-1.8,0-3.2-0.9-4.1-2.6L300.6,261.1z M311.5,289.6l-8.7,17.9c-0.9,1.6-2.1,2.4-4.1,2.6c-1.8,0-3.2-0.9-4.1-2.6l-22.7-46.4
	c-0.4-0.7-0.5-1.5-0.5-2c0-0.5,0-0.9,0.2-1.5c0.5-1.3,1.2-2,2.3-2.7c0.7-0.4,1.4-0.5,2-0.5s0.9,0,1.4,0.2c1.2,0.5,2,1.3,2.7,2.4
	l18.6,38.2l7.7-15.7L311.5,289.6z M439.7,267.9v-11.4h-4.3c-1.2,0-1.7-0.4-1.7-1.3v-0.3c0-0.9,0.5-1.3,1.7-1.3h12.5
	c1.2,0,1.7,0.4,1.7,1.3v0.1c0,1-0.7,1.3-1.7,1.3h-4.3v11.4c0,1-0.5,1.5-1.7,1.5h-0.5C440.3,269.4,439.7,268.8,439.7,267.9
	L439.7,267.9z M451.8,254.9c0-0.9,0.7-1.5,1.7-1.5h0.5c1,0,1.5,0.3,2,1.2l3.2,6.4c0.3,0.6,0.5,1.5,0.5,1.5s0.3-0.9,0.5-1.5l3.2-6.4
	c0.3-0.7,1-1.2,2-1.2h0.5c1,0,1.7,0.4,1.7,1.5l1.2,12.9c0,1-0.5,1.5-1.7,1.5h-0.5c-1,0-1.7-0.4-1.7-1.5l-0.5-6.8c0-0.6,0-1.2,0-1.2
	l-2.7,5.2c-0.3,0.7-1,1.2-2,1.2h-0.2c-1,0-1.5-0.3-1.8-1.2l-2.7-5.2v1.2l-0.7,6.8c0,1-0.7,1.5-1.7,1.5h-0.5c-1.2,0-1.7-0.6-1.7-1.5
	L451.8,254.9z"/>
<path class="st1" d="M-95.2,295.1c-0.5-7.2,1.8-16.9,5.3-27c-6.5,3.2-12.3,6.8-17.4,10.6c-6.2,17.8,0,38.4,15.3,49.5
	c1.9,1.4,3.9,2.7,6.1,3.7c6.1,3.1,12.7,4.5,19.2,4.5C-66.8,336.3-93.4,319.5-95.2,295.1L-95.2,295.1z M-82,248.2
	c7.9-17.8,16.3-32.6,16.3-32.6l-1.1-1.8c-7.1,11-14.4,22-21.5,32.9L-82,248.2z M-92.3,252.9c-3.2,5-6.4,9.8-9.4,14.8l14.9-7.9
	c0.8-1.8,1.4-3.7,2.2-5.5C-87.2,253.7-89.9,253.3-92.3,252.9z"/>
<linearGradient id="SVGID_1_" gradientUnits="userSpaceOnUse" x1="-261.7193" y1="524.1502" x2="-268.3088" y2="505.8892" gradientTransform="matrix(4.9139 0 0 -5.3863 1205.9055 3030.2412)">
	<stop  offset="0" style="stop-color:#2AC4F3"/>
	<stop  offset="0.5" style="stop-color:#00B2E2"/>
	<stop  offset="1" style="stop-color:#0095DA"/>
</linearGradient>
<path class="st2" d="M-90.5,253.9c-1.4-0.3-2.8-0.5-4.1-0.6c-0.3,0-0.4,0-0.6-0.1c-3.6,5.6-7.2,11.1-10.6,16.7
	c-0.1,0.1-0.1,0.3-0.3,0.4l7.7-4.1C-95.7,262.2-93.2,258-90.5,253.9z"/>
<linearGradient id="SVGID_2_" gradientUnits="userSpaceOnUse" x1="-290.1443" y1="541.4778" x2="-292.6929" y2="536.4218" gradientTransform="matrix(15.2653 0 0 -11.9784 4378.063 6708.3828)">
	<stop  offset="0" style="stop-color:#2AC4F3"/>
	<stop  offset="0.5" style="stop-color:#00B2E2"/>
	<stop  offset="1" style="stop-color:#0095DA"/>
</linearGradient>
<path class="st3" d="M-86.5,247.8c2.9-4.5,5.9-8.9,8.8-13.4c3.5-5.2,7-10.6,10.5-16.1c3.5,5.4,7,10.7,10.5,16
	c3.1,4.7,6.1,9.5,9.2,14.2l4.6-1c-3.5-5.2-6.8-10.5-10.1-15.6c-4-6.1-8.1-12.4-12.2-18.7l-2-2.8l-1.8,2.8
	c-4.1,6.3-8.3,12.7-12.4,18.8c-3.3,5-6.7,10.1-10,15.2h2.6L-86.5,247.8z"/>
<linearGradient id="SVGID_3_" gradientUnits="userSpaceOnUse" x1="-257.6114" y1="523.4432" x2="-263.5262" y2="506.6831" gradientTransform="matrix(5.2361 0 0 -5.8686 1324.0402 3300.3589)">
	<stop  offset="0" style="stop-color:#2AC4F3"/>
	<stop  offset="0.5" style="stop-color:#00B2E2"/>
	<stop  offset="1" style="stop-color:#0095DA"/>
</linearGradient>
<path class="st4" d="M-35.7,266.7l8.3,5.1c-0.4-0.6-0.6-1.2-1-1.8c-3.6-5.6-7.2-11.2-10.9-16.9c-0.6,0.1-1.4,0.1-2,0.3
	c-0.9,0.1-1.8,0.3-2.7,0.4C-41.3,258-38.5,262.2-35.7,266.7L-35.7,266.7z"/>
<linearGradient id="SVGID_4_" gradientUnits="userSpaceOnUse" x1="-296.9463" y1="547.4177" x2="-298.3098" y2="545.0622" gradientTransform="matrix(28.5316 0 0 -19.4951 8430.9443 10938.7002)">
	<stop  offset="0" style="stop-color:#2AC4F3"/>
	<stop  offset="0.5" style="stop-color:#00B2E2"/>
	<stop  offset="1" style="stop-color:#0095DA"/>
</linearGradient>
<path class="st5" d="M-23.1,282.4c-1.9-1.5-4-2.9-6.1-4.5c4.6,10.9,4.4,23.5-1,34.3c-2.9,5.9-7.4,11.1-12.9,15
	c-6.9,4.9-15.5,7.7-24,7.7c-6.4,0-12.6-1.4-18.3-4.2c-2-1-4-2.2-5.8-3.5c-8.2-6-14-15-16-25.2c-1.8-8.6-0.8-17.1,2.7-24.9
	c-2.2,1.5-4.4,3.1-6.3,4.7c-1.8,6.8-2,13.9-0.6,21c2.3,11.2,8.6,21.2,17.7,27.9c2,1.4,4.2,2.8,6.4,3.8c6.1,3.1,12.9,4.6,19.9,4.6
	h0.4c9.3-0.1,18.8-3.1,26.5-8.6c6-4.2,11-10,14.2-16.5C-21.4,304.2-20.4,292.8-23.1,282.4z"/>
<linearGradient id="SVGID_5_" gradientUnits="userSpaceOnUse" x1="-287.236" y1="485.9232" x2="-290.0938" y2="483.9606" gradientTransform="matrix(13.6139 0 0 -3.698 3873.5427 2101.4709)">
	<stop  offset="0" style="stop-color:#2AC4F3"/>
	<stop  offset="0.5" style="stop-color:#00B2E2"/>
	<stop  offset="1" style="stop-color:#0095DA"/>
</linearGradient>
<path class="st6" d="M-88.8,306.1c0,0,6.5,11.8,21.6,11.8c14.3,0,21.6-11.8,21.6-11.8C-69.3,321.5-88.8,306.1-88.8,306.1z"/>
<path class="st7" d="M-126.7,296.9c-1,4.8,0.4,7.3,1.1,8.7c2.2,3.6,6.1,5.9,11.6,6.6h0.1c0,0,1,0.3,2.5,0.3c0.6,1.5,1.4,2.9,2.2,4.3
	c-0.4,0-0.8,0-1.1,0c-2.3,0-4.1-0.3-4.3-0.4c-7-1-12-4-14.8-8.8c-1.4-2.4-2.9-7-1.4-12.8C-130.6,295-128.8,296.3-126.7,296.9z
	 M-73.9,256.8c-2.4-0.8-4.8-1.4-7.1-1.9c-1.6,0.6-3.3,1.3-4.9,2c-13.7,5.6-25.2,12.9-33.3,20.8c-1.1-0.6-2.4-1-3.8-1
	c-4.6,0-8.2,3.6-8.2,8.2c0,4.5,3.7,8.2,8.2,8.2c4.6,0,8.2-3.6,8.2-8.2c0-1.5-0.5-3-1.3-4.3c7.7-7.4,19-14.5,31.9-19.9
	C-80.8,259.4-77.3,258-73.9,256.8z M-123.1,289.4c-2.4,0-4.4-2-4.4-4.4s2-4.4,4.4-4.4c2.4,0,4.4,2,4.4,4.4
	C-118.7,287.5-120.7,289.4-123.1,289.4z M-59.9,252.5c6.2-1.6,12-2.9,17.3-3.6c12.8-1.8,18.7,0.1,20,2.5c1.1,2.1-0.3,6.5-3.9,11.8
	l3.5,2.4c4.8-6.9,6.2-12.4,4.2-16.2c-4.6-8.5-25.8-6.3-48.5,0.6"/>
<path class="st0" d="M-67.2,250.2c-22.5-6.9-43.8-9.2-48.5-0.6c-2,3.8-0.6,9.3,4.2,16.2l3.5-2.4c-3.7-5.3-5.2-9.5-3.9-11.8
	c1.3-2.4,7.2-4.3,20-2.6c12,1.5,26.8,5.8,41.8,12c21.4,8.9,37.7,22.2,41.8,34.1c1.4,4,1.1,7.6-0.5,10.7c-2.2,3.6-6.1,5.9-11.8,6.6
	c0,0-0.4,0-1,0.1c-0.3,0.8-0.6,1.4-1,2c-0.4,0.8-0.8,1.5-1.3,2.4c2.3,0,3.8-0.3,3.9-0.3c0.9-0.1,1.6-0.3,2.5-0.5
	c0.8-0.1,1.6-0.4,2.3-0.6c0.4-0.1,0.8-0.3,1.1-0.4c3.9-1.5,7-4,8.9-7.3c2.4-4,2.7-8.9,0.9-14.2c-4.4-13.2-21.4-27.2-44.2-36.6
	c-3.8-1.6-7.7-3.1-11.6-4.4L-67.2,250.2z M-95.6,235.8c-0.9,0-1.8-0.4-2.4-1s-1-1.5-1-2.4c0-0.9,0.4-1.8,1-2.4c0.6-0.6,1.5-1,2.4-1
	c0.9,0,1.8,0.4,2.4,1c0.6,0.6,1,1.5,1,2.4c0,0.9-0.4,1.8-1,2.4S-94.8,235.8-95.6,235.8z"/>
<path class="st7" d="M-9.7,270.5c-0.9,0-1.8-0.4-2.4-1c-0.6-0.6-1-1.5-1-2.4s0.4-1.8,1-2.4c0.6-0.6,1.5-1,2.4-1s1.8,0.4,2.4,1
	c0.6,0.6,1,1.5,1,2.4s-0.4,1.8-1,2.4C-7.9,270.3-8.7,270.5-9.7,270.5z"/>
</svg>
